# xmcd CD database file
#
# Track frame offsets:
#	150
#	37473
#	56922
#	90015
#	118192
#	132345
#	148635
#	206327
#	225637
#	247083
#	277364
#	291425
#	309295
#
# Disc length: 4301 seconds
#
# Revision: 0
# Processed by: cddbd v1.5.1PL0 Copyright (c) Steve Scherf et al.
# Submitted via: CDex 1.51
#
DISCID=ce10cb0d
DTITLE=Kintamarni - Hot Lipped
DYEAR=2003
DGENRE=Jazz
TTITLE0=A Small Dream of a Dance
TTITLE1=Histoire Du Tango: Bordel 1900
TTITLE2=Histoire Du Tango: Cafe 1930
TTITLE3=Histoire Du Tango: Night club 1960
TTITLE4=Concert d'aujourd hui
TTITLE5=Rithim
TTITLE6=Now and Then
TTITLE7=Gig!
TTITLE8=Trilogy: Before the bubble squeaks
TTITLE9=Trilogy: Home, warm, fed and forgiven
TTITLE10=Trilogy: Frying tonight
TTITLE11=Full English Breakfast
TTITLE12=Yuppieville Rodeo
EXTD=YEAR: 2003
EXTT0=
EXTT1=
EXTT2=
EXTT3=
EXTT4=
EXTT5=
EXTT6=
EXTT7=
EXTT8=
EXTT9=
EXTT10=
EXTT11=
EXTT12=
PLAYORDER=
